<svg width="12" height="10" viewBox="0 0 12 10" fill="none" xmlns="http://www.w3.org/2000/svg">
<path d="M1 4.37037C0.652265 4.37037 0.37037 4.65227 0.37037 5C0.37037 5.34773 0.652265 5.62963 1 5.62963L1 4.37037ZM11.4452 5.44522C11.6911 5.19933 11.6911 4.80067 11.4452 4.55478L7.43828 0.547846C7.19239 0.30196 6.79373 0.30196 6.54785 0.547846C6.30196 0.793732 6.30196 1.19239 6.54785 1.43828L10.1096 5L6.54785 8.56172C6.30196 8.80761 6.30196 9.20627 6.54785 9.45215C6.79373 9.69804 7.19239 9.69804 7.43828 9.45215L11.4452 5.44522ZM1 5.62963L11 5.62963V4.37037L1 4.37037L1 5.62963Z" fill="white"/>
</svg>
