<svg width="13" height="15" viewBox="0 0 13 15" fill="none" xmlns="http://www.w3.org/2000/svg">
<path fill-rule="evenodd" clip-rule="evenodd" d="M6.5 0C5.51492 0 4.57019 0.395088 3.87363 1.09835C3.17707 1.80161 2.78575 2.75544 2.78575 3.75V4.6875H1.85719C1.62859 4.68748 1.40802 4.7726 1.23772 4.92656C1.06742 5.08051 0.959343 5.29248 0.934197 5.52187L0.005635 13.9594C-0.00872701 14.0904 0.00443947 14.223 0.0442751 14.3485C0.0841108 14.4741 0.14972 14.5897 0.23682 14.6879C0.323921 14.7861 0.430553 14.8647 0.549759 14.9184C0.668964 14.9722 0.798062 15 0.928626 15H12.0714C12.2019 15 12.331 14.9722 12.4502 14.9184C12.5694 14.8647 12.6761 14.7861 12.7632 14.6879C12.8503 14.5897 12.9159 14.4741 12.9557 14.3485C12.9956 14.223 13.0087 14.0904 12.9944 13.9594L12.0658 5.52187C12.0407 5.29248 11.9326 5.08051 11.7623 4.92656C11.592 4.7726 11.3714 4.68748 11.1428 4.6875H10.2143V3.75C10.2143 2.75544 9.82293 1.80161 9.12637 1.09835C8.42982 0.395088 7.48508 0 6.5 0ZM8.35713 4.6875V3.75C8.35713 3.25272 8.16146 2.77581 7.81319 2.42417C7.46491 2.07254 6.99254 1.875 6.5 1.875C6.00746 1.875 5.53509 2.07254 5.18682 2.42417C4.83854 2.77581 4.64288 3.25272 4.64288 3.75V4.6875H8.35713ZM2.78575 7.5C2.78575 7.25136 2.88358 7.0129 3.05772 6.83709C3.23186 6.66127 3.46804 6.5625 3.71431 6.5625C3.96058 6.5625 4.19677 6.66127 4.37091 6.83709C4.54505 7.0129 4.64288 7.25136 4.64288 7.5C4.64288 7.74864 4.54505 7.9871 4.37091 8.16291C4.19677 8.33873 3.96058 8.4375 3.71431 8.4375C3.46804 8.4375 3.23186 8.33873 3.05772 8.16291C2.88358 7.9871 2.78575 7.74864 2.78575 7.5ZM9.28569 6.5625C9.03942 6.5625 8.80323 6.66127 8.6291 6.83709C8.45496 7.0129 8.35713 7.25136 8.35713 7.5C8.35713 7.74864 8.45496 7.9871 8.6291 8.16291C8.80323 8.33873 9.03942 8.4375 9.28569 8.4375C9.53196 8.4375 9.76814 8.33873 9.94228 8.16291C10.1164 7.9871 10.2143 7.74864 10.2143 7.5C10.2143 7.25136 10.1164 7.0129 9.94228 6.83709C9.76814 6.66127 9.53196 6.5625 9.28569 6.5625Z" fill="url(#paint0_linear_111_1378)"/>
<defs>
<linearGradient id="paint0_linear_111_1378" x1="6.5" y1="0" x2="6.5" y2="15" gradientUnits="userSpaceOnUse">
<stop stop-color="#029ECF"/>
<stop offset="1" stop-color="#27D0A5"/>
</linearGradient>
</defs>
</svg>
