<svg width="96" height="113" viewBox="0 0 96 113" fill="none" xmlns="http://www.w3.org/2000/svg">
<g id="Group">
<path id="Vector" d="M45.4956 0.512402C43.5297 1.11808 41.7979 3.02484 40.0661 6.38972C37.2343 11.8857 35.6195 18.1219 35.0111 25.8387L34.894 27.252H47.9529H61.0118L60.8947 25.8387C60.2863 18.1219 58.6715 11.8857 55.8397 6.38972C53.4994 1.81349 51.2995 0.0861835 47.8593 0.131048C47.204 0.131048 46.1509 0.310509 45.4956 0.512402Z" fill="url(#paint0_linear_68_1122)"/>
<path id="Vector_2" d="M34.2387 3.0024C24.9478 7.37675 18.3715 16.26 17.1546 25.9509L17.0142 27.252H23.4266H29.839L30.1198 24.1114C30.7985 16.5965 32.7644 9.57513 35.7599 3.967C36.3918 2.84538 36.8131 1.90321 36.7195 1.90321C36.6259 1.90321 35.5259 2.39673 34.2387 3.0024Z" fill="url(#paint1_linear_68_1122)"/>
<path id="Vector_3" d="M60.0287 3.78754C63.0711 9.39567 65.1072 16.5741 65.7859 24.1114L66.0667 27.252H72.4791H78.8915L78.7277 25.8387C77.6278 16.5068 70.9345 7.44404 61.9946 3.137C58.7884 1.61159 58.8586 1.58916 60.0287 3.78754Z" fill="url(#paint2_linear_68_1122)"/>
<path id="Vector_4" d="M17.061 32.5462C17.061 33.6005 17.9972 37.5262 18.7226 39.5227C19.6354 42.0127 21.1566 44.7944 22.865 47.06C24.5032 49.236 28.3179 52.8028 30.588 54.2384C32.4836 55.4498 36.4621 57.4239 36.6493 57.222C36.7195 57.1547 36.4855 56.6163 36.1345 56.033C32.9985 50.6941 30.6114 42.1698 30.0497 34.2511L29.8625 31.963H23.4734H17.061V32.5462Z" fill="url(#paint3_linear_68_1122)"/>
<path id="Vector_5" d="M35.011 32.1199C34.8706 32.3891 35.245 36.4718 35.6663 39.1413C36.7896 46.2973 40.0426 54.4178 42.851 57.1097C45.3317 59.4876 49.2868 59.7792 52.259 57.8276C54.7163 56.19 57.9693 49.4154 59.5139 42.7305C60.1458 39.9713 60.7309 35.9335 60.8713 33.5332L60.9415 32.0751L48.023 32.0078C40.9319 31.9853 35.0578 32.0302 35.011 32.1199Z" fill="url(#paint4_linear_68_1122)"/>
<path id="Vector_6" d="M65.786 35.0812C65.1073 42.5288 63.2818 49.2585 60.3799 54.8666C59.7246 56.1229 59.2331 57.1996 59.2799 57.2669C59.4438 57.4239 63.5627 55.3602 65.3179 54.2385C67.588 52.8028 71.4027 49.2361 73.0409 47.0601C74.8897 44.615 76.3407 41.9231 77.3002 39.1414C78.0257 37.0328 78.8448 33.4885 78.8448 32.3893C78.8448 31.9855 78.5406 31.963 72.4558 31.963H66.0668L65.786 35.0812Z" fill="url(#paint5_linear_68_1122)"/>
<path id="Vector_7" d="M90.4291 55.9879C87.4803 58.0965 82.4487 61.6858 79.2659 63.929L73.4854 68.0566L75.8725 72.6104C77.183 75.1228 79.8276 80.2374 81.7232 84.0061C83.6188 87.7748 85.3741 91.0948 85.6081 91.364L86.0059 91.9023L90.4525 89.7713C92.9098 88.6048 95.0395 87.4831 95.2033 87.2812C95.4607 86.9896 95.5544 84.0061 95.7182 72.7225C95.8352 64.9385 95.9522 57.1095 95.9756 55.3374C96.0224 53.5876 95.999 52.1519 95.9288 52.1519C95.8586 52.1519 93.4013 53.8792 90.4291 55.9879Z" fill="url(#paint6_linear_68_1122)"/>
<path id="Vector_8" d="M0.0702089 55.2246C0.257433 56.3462 1.21695 62.8068 1.84883 67.2933C2.55092 72.1611 5.80394 88.5369 6.13158 88.8734C6.36561 89.0753 15.1651 91.8345 15.9842 91.9466C16.2885 91.9915 17.131 89.7034 20.0095 80.865C21.4839 76.356 23.1689 71.3311 23.7774 69.6936C24.4327 67.8317 24.7603 66.6203 24.6199 66.4857C24.3625 66.239 0.304239 54.3946 0.0702089 54.3946C-0.023403 54.3946 -0.023403 54.7759 0.0702089 55.2246Z" fill="url(#paint7_linear_68_1122)"/>
<path id="Vector_9" d="M53.1951 67.4065C52.6802 67.4962 51.2526 67.9673 50.0357 68.416C48.8187 68.8646 46.9465 69.5376 45.87 69.8965C42.5701 70.9733 40.4639 72.6108 39.1533 75.056C38.8257 75.7065 37.7959 77.3441 36.9066 78.6676C35.9939 80.0136 35.3386 81.1801 35.4322 81.2698C35.5024 81.3595 36.5556 81.4268 37.7257 81.4268C39.598 81.4044 40.0426 81.3371 41.166 80.7987C41.8681 80.4398 43.0382 79.6322 43.7403 78.9592C45.3317 77.4787 45.987 77.1646 48.1869 76.8281C49.1464 76.6936 50.808 76.3571 51.8611 76.1103C53.2419 75.7963 53.8738 75.729 54.2014 75.886C54.4823 76.043 54.8567 76.7833 55.2078 77.8825C56.2141 80.9333 57.9225 82.9074 60.4734 84.029C60.9883 84.2533 62.6031 84.7468 64.0775 85.1282C65.5285 85.5095 66.9326 85.9357 67.1667 86.0928C67.3773 86.2498 69.2963 87.9098 71.4026 89.7493C73.5089 91.6112 75.6151 93.4506 76.0832 93.8544L76.9491 94.5723L78.1895 93.6974C78.8682 93.2263 80.0851 92.4412 80.8574 91.9925L82.3084 91.1625L77.3938 81.5838C74.7024 76.3122 72.2451 71.8033 71.9409 71.5341C71.6366 71.2649 70.6771 70.8835 69.8112 70.6592C68.9219 70.4349 65.8327 69.6049 62.9307 68.8197C57.4544 67.3392 55.1609 67.0027 53.1951 67.4065Z" fill="url(#paint8_linear_68_1122)"/>
<path id="Vector_10" d="M32.2722 69.9187C28.4575 70.0757 27.6384 70.1879 27.3107 70.5019C26.9363 70.8833 20.4771 89.9285 20.6175 90.2874C20.6643 90.3772 21.6706 91.1623 22.8876 92.0372L25.1109 93.585L26.2576 93.0018C28.9255 91.6782 31.4999 92.5755 32.9509 95.2899L33.7466 96.7929H35.1273C36.7889 96.7929 37.9357 97.2864 39.1292 98.565C39.8547 99.3502 40.4632 100.629 40.4632 101.436C40.4632 101.638 40.8611 101.728 41.727 101.728C43.9269 101.728 45.6353 102.805 46.4778 104.756C46.8756 105.721 46.899 105.721 48.233 105.811C50.4095 105.968 51.5094 107 52.0009 109.355L52.3285 110.813L53.9433 111.105C55.2305 111.352 55.7922 111.352 56.5879 111.15C57.1495 111.015 57.524 110.813 57.407 110.723C57.29 110.634 55.6751 109.377 53.8029 107.964C50.152 105.183 49.9648 105.026 49.7308 104.263C49.4968 103.545 50.5031 102.513 51.2754 102.693C51.603 102.782 53.4285 104.016 55.3241 105.429C59.9813 108.929 60.5196 109.22 62.0876 109.086C62.7662 109.041 63.679 108.794 64.0768 108.547L64.8023 108.099L61.1046 105.25C54.2476 99.9558 53.9199 99.6642 53.8497 98.7894C53.7561 97.7799 54.4348 97.1293 55.3241 97.3312C55.6517 97.421 56.7283 98.1837 57.6878 99.0361C59.7941 100.92 62.2046 102.693 65.4108 104.734C67.5171 106.08 67.9617 106.259 69.1787 106.372C70.3956 106.484 70.6296 106.439 71.1913 105.968C71.5892 105.654 71.8934 105.115 71.9636 104.644C72.0806 103.949 72.0104 103.792 71.3083 103.298C69.9042 102.311 59.7707 94.2804 59.4898 93.9215C59.0218 93.3831 59.1388 92.598 59.7005 92.082C60.4728 91.3866 61.128 91.5212 62.5088 92.7101C65.4108 95.2001 72.5721 100.696 73.6252 101.234C74.5613 101.728 75.4741 101.571 76.1527 100.786C76.9484 99.8885 76.8314 98.9015 75.8719 97.8472C74.1401 95.9629 66.3001 89.1209 65.364 88.6499C64.9895 88.4704 63.796 88.1115 62.696 87.8423C58.0622 86.7431 54.5284 84.1409 53.1944 80.8658C52.6328 79.4301 52.3051 79.2506 50.6435 79.4077C47.7883 79.6768 47.0629 79.946 45.6587 81.2247C42.7333 83.8717 39.1058 84.9261 35.5018 84.2082C33.9572 83.8942 32.5998 83.2436 32.2722 82.6828C31.5935 81.4266 32.0381 80.462 36.2273 74.1585C37.7953 71.8255 39.059 69.8738 39.059 69.7841C39.059 69.6271 38.6144 69.6495 32.2722 69.9187Z" fill="url(#paint9_linear_68_1122)"/>
<path id="Vector_11" d="M27.8727 95.5593C27.0536 96.1425 25.9536 97.8249 25.9536 98.5652C25.9536 99.2831 26.6557 99.9336 27.4514 99.9336C28.1301 99.9336 29.3939 99.0812 29.9087 98.2736C30.5874 97.2193 30.5406 96.2547 29.7917 95.6938C29.0428 95.133 28.5747 95.1106 27.8727 95.5593Z" fill="url(#paint10_linear_68_1122)"/>
<path id="Vector_12" d="M33.6537 100.247C32.7878 100.808 31.5708 102.759 31.5708 103.567C31.5708 104.173 32.1793 105.249 32.6239 105.406C33.9345 105.878 35.8067 104.846 36.7897 103.118C37.562 101.75 37.5386 100.942 36.7195 100.337C35.7131 99.6413 34.6132 99.5964 33.6537 100.247Z" fill="url(#paint11_linear_68_1122)"/>
<path id="Vector_13" d="M40.2529 105.475C38.6615 106.978 38.404 109.086 39.738 109.714C40.5571 110.118 41.4698 109.714 42.4294 108.526C43.5059 107.202 43.7165 106.148 43.108 105.363C42.3591 104.376 41.3294 104.42 40.2529 105.475Z" fill="url(#paint12_linear_68_1122)"/>
<path id="Vector_14" d="M46.8993 109.221C46.1738 109.916 45.7057 111.509 46.1036 111.957C46.6652 112.608 48.2566 112.114 48.7949 111.127C49.7544 109.333 48.3034 107.875 46.8993 109.221Z" fill="url(#paint13_linear_68_1122)"/>
</g>
<defs>
<linearGradient id="paint0_linear_68_1122" x1="47.9529" y1="27.252" x2="47.9529" y2="0.130199" gradientUnits="userSpaceOnUse">
<stop stop-color="#27D0A5"/>
<stop offset="1" stop-color="#029ECF"/>
</linearGradient>
<linearGradient id="paint1_linear_68_1122" x1="26.8733" y1="27.252" x2="26.8733" y2="1.90321" gradientUnits="userSpaceOnUse">
<stop stop-color="#27D0A5"/>
<stop offset="1" stop-color="#029ECF"/>
</linearGradient>
<linearGradient id="paint2_linear_68_1122" x1="69.091" y1="27.252" x2="69.091" y2="2.05586" gradientUnits="userSpaceOnUse">
<stop stop-color="#27D0A5"/>
<stop offset="1" stop-color="#029ECF"/>
</linearGradient>
<linearGradient id="paint3_linear_68_1122" x1="26.8614" y1="57.2363" x2="26.8614" y2="31.963" gradientUnits="userSpaceOnUse">
<stop stop-color="#27D0A5"/>
<stop offset="1" stop-color="#029ECF"/>
</linearGradient>
<linearGradient id="paint4_linear_68_1122" x1="47.9612" y1="59.1143" x2="47.9612" y2="32.0021" gradientUnits="userSpaceOnUse">
<stop stop-color="#27D0A5"/>
<stop offset="1" stop-color="#029ECF"/>
</linearGradient>
<linearGradient id="paint5_linear_68_1122" x1="69.0608" y1="57.2754" x2="69.0608" y2="31.963" gradientUnits="userSpaceOnUse">
<stop stop-color="#27D0A5"/>
<stop offset="1" stop-color="#029ECF"/>
</linearGradient>
<linearGradient id="paint6_linear_68_1122" x1="84.7427" y1="91.9023" x2="84.7427" y2="52.1519" gradientUnits="userSpaceOnUse">
<stop stop-color="#27D0A5"/>
<stop offset="1" stop-color="#029ECF"/>
</linearGradient>
<linearGradient id="paint7_linear_68_1122" x1="12.326" y1="91.9473" x2="12.326" y2="54.3946" gradientUnits="userSpaceOnUse">
<stop stop-color="#27D0A5"/>
<stop offset="1" stop-color="#029ECF"/>
</linearGradient>
<linearGradient id="paint8_linear_68_1122" x1="58.8659" y1="94.5723" x2="58.8659" y2="67.2487" gradientUnits="userSpaceOnUse">
<stop stop-color="#27D0A5"/>
<stop offset="1" stop-color="#029ECF"/>
</linearGradient>
<linearGradient id="paint9_linear_68_1122" x1="48.6471" y1="111.296" x2="48.6471" y2="69.6861" gradientUnits="userSpaceOnUse">
<stop stop-color="#27D0A5"/>
<stop offset="1" stop-color="#029ECF"/>
</linearGradient>
<linearGradient id="paint10_linear_68_1122" x1="28.1705" y1="99.9336" x2="28.1705" y2="95.2457" gradientUnits="userSpaceOnUse">
<stop stop-color="#27D0A5"/>
<stop offset="1" stop-color="#029ECF"/>
</linearGradient>
<linearGradient id="paint11_linear_68_1122" x1="34.4613" y1="105.521" x2="34.4613" y2="99.7858" gradientUnits="userSpaceOnUse">
<stop stop-color="#27D0A5"/>
<stop offset="1" stop-color="#029ECF"/>
</linearGradient>
<linearGradient id="paint12_linear_68_1122" x1="41.162" y1="109.866" x2="41.162" y2="104.652" gradientUnits="userSpaceOnUse">
<stop stop-color="#27D0A5"/>
<stop offset="1" stop-color="#029ECF"/>
</linearGradient>
<linearGradient id="paint13_linear_68_1122" x1="47.5312" y1="112.252" x2="47.5312" y2="108.695" gradientUnits="userSpaceOnUse">
<stop stop-color="#27D0A5"/>
<stop offset="1" stop-color="#029ECF"/>
</linearGradient>
</defs>
</svg>
