<svg width="89" height="88" viewBox="0 0 89 88" fill="none" xmlns="http://www.w3.org/2000/svg">
<g id="Group 67">
<g id="Group">
<path id="Vector" d="M61.6752 10.6269C47.5864 -3.43684 24.6599 -3.43684 10.569 10.6269C-3.523 24.6871 -3.523 47.568 10.569 61.6292C24.1765 75.2089 46.0235 75.6711 60.1958 63.0229L63.0608 65.8832C62.3474 67.7055 62.7214 69.8529 64.1961 71.3248L79.314 86.4118C81.3013 88.3964 84.5249 88.3964 86.5112 86.4118C88.4998 84.4296 88.4998 81.2134 86.5112 79.2279L71.3946 64.144C69.9186 62.6699 67.766 62.2969 65.9397 63.0099L63.0747 60.1497C75.7509 46.007 75.2836 24.2045 61.6752 10.6269ZM14.8875 57.3205C3.17825 45.6363 3.17825 26.6205 14.8875 14.935C26.5958 3.24951 45.6497 3.24951 57.3588 14.935C69.0681 26.6205 69.0681 45.6361 57.3588 57.3205C45.6497 69.0048 26.5958 69.0048 14.8875 57.3205Z" fill="url(#paint0_linear_68_1152)"/>
<path id="Vector_2" d="M48.0763 16.4848C41.4763 9.89824 30.8132 9.95131 24.2119 16.5375C17.6119 23.1236 17.5666 33.7902 24.1669 40.3753L36.0898 52.2092L48.0385 40.283C54.6389 33.6958 54.6754 23.0712 48.0763 16.4848ZM36.134 38.483C30.5189 38.483 25.9673 33.9401 25.9673 28.3377C25.9673 22.7329 30.5189 18.1906 36.134 18.1906C41.7501 18.1906 46.3019 22.734 46.3019 28.3377C46.3019 33.9392 41.7514 38.483 36.134 38.483Z" fill="url(#paint1_linear_68_1152)"/>
<path id="Vector_3" d="M35.9418 55.5056C40.1786 55.5056 44.1769 56.4254 47.7253 58.055C44.9581 54.9609 40.6771 52.9648 35.8581 52.9648C30.9714 52.9648 26.6379 55.0189 23.8782 58.1878C27.4972 56.4769 31.5955 55.5056 35.9418 55.5056Z" fill="url(#paint2_linear_68_1152)"/>
</g>
</g>
<defs>
<linearGradient id="paint0_linear_68_1152" x1="44.0013" y1="0.0791016" x2="44.0013" y2="87.9002" gradientUnits="userSpaceOnUse">
<stop stop-color="#27D0A5"/>
<stop offset="1" stop-color="#029ECF"/>
</linearGradient>
<linearGradient id="paint1_linear_68_1152" x1="36.1233" y1="11.5713" x2="36.1233" y2="52.2092" gradientUnits="userSpaceOnUse">
<stop stop-color="#27D0A5"/>
<stop offset="1" stop-color="#029ECF"/>
</linearGradient>
<linearGradient id="paint2_linear_68_1152" x1="35.8017" y1="52.9648" x2="35.8017" y2="58.1878" gradientUnits="userSpaceOnUse">
<stop stop-color="#27D0A5"/>
<stop offset="1" stop-color="#029ECF"/>
</linearGradient>
</defs>
</svg>
