<svg width="87" height="87" viewBox="0 0 87 87" fill="none" xmlns="http://www.w3.org/2000/svg">
<g id="Group">
<path id="Vector" d="M25.8673 0.460388C25.4462 0.613197 24.6041 1.33903 24.0299 2.02666C23.1112 3.09631 22.9963 3.55473 23.1112 5.1974L23.226 7.14569L16.4123 13.7164C10.0196 19.9051 9.52196 20.2871 7.99078 20.4017L6.38304 20.5163L6.2682 23.0758L6.15336 25.6735H4.92842C4.23938 25.6735 3.47379 25.8645 3.20584 26.1319C2.55509 26.7814 2.55509 51.3069 3.20584 51.9563C3.85659 52.6057 51.3997 52.6057 52.0505 51.9563C52.7012 51.3069 52.7012 26.7814 52.0505 26.1319C51.7825 25.8645 51.0169 25.6735 50.3279 25.6735H49.103L48.9881 23.0758L48.8733 20.5163L47.2656 20.3253C45.7727 20.1343 45.0453 19.5612 38.8058 13.64L31.9538 7.14569L32.1451 5.38841C32.5279 1.75925 29.1593 -0.876671 25.8673 0.460388ZM36.0497 14.6332C41.2557 19.523 41.7533 20.1343 40.9494 20.3253C40.1456 20.5163 40.069 20.7837 39.9542 23.114L39.8393 25.6735H27.6282H15.3787V23.1522C15.3787 20.9747 15.2639 20.5927 14.6131 20.4399C14.1921 20.3253 13.8475 20.1725 13.8475 20.0579C13.8475 19.9433 16.374 17.4601 19.4363 14.4804L25.0634 9.05577L27.6664 9.09398L30.2695 9.13218L36.0497 14.6332ZM9.6368 39.0441V49.7406H7.53142H5.42605V39.0441V28.3476H7.53142H9.6368V39.0441ZM16.1443 39.0441V49.7406H14.2303H12.3164V39.0441V28.3476H14.2303H16.1443V39.0441ZM23.0346 39.0441V49.7406H20.9293H18.8239V39.0441V28.3476H20.9293H23.0346V39.0441ZM29.5421 39.0441V49.7406H27.6282H25.7142V39.0441V28.3476H27.6282H29.5421V39.0441ZM36.4325 39.0441V49.7406H34.3271H32.2217V39.0441V28.3476H34.3271H36.4325V39.0441ZM43.3228 39.0441V49.7406H41.2174H39.112V39.0441V28.3476H41.2174H43.3228V39.0441ZM49.8303 39.0441V49.7406H47.7249H45.6195V39.0441V28.3476H47.7249H49.8303V39.0441Z" fill="url(#paint0_linear_68_1114)"/>
<path id="Vector_2" d="M66.3289 18.1482C66.0227 18.5302 65.9078 20.2874 65.9844 23.7638C66.0992 29.0356 66.0609 28.8828 67.7452 29.7615C67.8218 29.7997 67.171 30.7929 66.2906 31.939L64.7212 34.0783L63.8407 33.0468C63.3814 32.4356 62.6158 31.4423 62.1564 30.7547L61.3143 29.5323L62.1564 29.4177C62.9986 29.303 63.0369 29.112 63.1517 25.8267C63.2283 22.9998 63.1517 22.2739 62.6541 21.8537C61.5057 20.8987 60.7401 21.8537 60.6252 24.4896C60.5104 26.6671 60.4339 26.8199 59.5917 26.8199C58.1371 26.8199 57.4863 27.2402 57.4863 28.157C57.4863 29.3412 63.5728 37.2872 64.6063 37.44C65.2188 37.5164 66.1375 36.5996 68.7022 33.1614C70.5396 30.7165 72.0325 28.5008 72.0325 28.1952C72.0325 27.4694 70.8459 26.8199 69.5827 26.8199H68.6257L68.5108 22.3121C68.396 18.1099 68.3577 17.8425 67.5921 17.7279C67.171 17.6515 66.5969 17.8425 66.3289 18.1482Z" fill="url(#paint1_linear_68_1114)"/>
<path id="Vector_3" d="M55.9934 46.1496C55.2278 47.1047 55.1895 47.6395 55.1895 56.2731V65.4033H28.3939C-2.76564 65.4033 0.0670458 64.9831 0.0670458 69.5673V72.2414L1.8279 72.356C5.15822 72.5852 5.04338 74.9537 1.75134 74.9537H0.0670458V76.5964C0.0670458 79.2323 1.06231 79.92 4.96682 79.92H8.10574L8.75649 81.3334C9.10101 82.1357 9.48381 82.8997 9.56036 83.0525C9.63692 83.2053 8.25886 83.3581 6.53628 83.4345C4.12467 83.5109 3.3208 83.7019 3.01457 84.1985C2.70833 84.657 2.74661 85.0008 3.09113 85.421C3.55048 85.9558 7.53155 86.0322 43.1315 86.0322C78.7314 86.0322 82.7125 85.9558 83.1719 85.421C84.014 84.4278 83.1336 83.5491 81.0665 83.4345C80.0712 83.3581 79.3056 83.2053 79.3822 83.0525C79.4587 82.8997 79.8415 82.1357 80.1861 81.3334C80.7603 80.0728 80.9899 79.92 82.2149 79.92C84.1289 79.92 86.1959 77.8953 86.1959 75.9852C86.1959 74.6099 86.1959 74.6099 84.4351 74.4953C81.0665 74.2661 81.2196 71.8976 84.5499 71.8976H86.2725L86.1194 69.7965C86.0045 68.4976 85.66 67.428 85.239 66.9314C84.8179 66.473 82.7125 65.2505 80.4923 64.2191L76.4347 62.309L73.4871 57.0371C71.8411 54.1338 70.2334 51.5361 69.8889 51.2305C69.5061 50.8867 68.0515 50.6574 66.214 50.5428L63.2282 50.4282V48.5564C63.2282 45.844 62.4244 45.1564 59.2472 45.1564C57.027 45.1564 56.6824 45.271 55.9934 46.1496ZM60.5487 62.5382V77.2458H59.2089H57.8691V62.5382V47.8305H59.2089H60.5487V62.5382ZM69.353 55.0888C69.8889 56.0439 70.999 57.954 71.7646 59.3674L73.2192 61.9652H68.2046H63.2282V57.572V53.1406L65.793 53.2552L68.3577 53.3698L69.353 55.0888ZM17.6373 74.4953C18.9771 75.2211 20.3552 77.2458 20.3552 78.5065C20.3552 80.875 17.9053 83.3581 15.5702 83.3581C14.0008 83.3581 12.1251 82.1357 11.3212 80.6458C10.1728 78.4301 11.2829 75.374 13.5797 74.3807C15.2257 73.6549 16.1062 73.6931 17.6373 74.4953ZM35.1694 74.5717C38.6145 76.6728 38.538 81.3716 35.0162 82.8233C33.4085 83.5109 32.4515 83.5109 30.8821 82.7469C29.1595 81.9446 28.2025 80.0728 28.5087 78.0481C28.7384 76.2144 29.5805 75.0683 31.2648 74.3425C32.8726 73.6549 33.753 73.6931 35.1694 74.5717ZM76.1284 74.7627C77.162 75.4504 78.1572 77.475 78.1572 78.8503C78.1572 80.9896 75.5925 83.3581 73.2958 83.3581C71.0373 83.3581 68.5874 80.8368 68.5874 78.5065C68.5874 77.2458 69.9654 75.2211 71.3052 74.4953C72.7598 73.6549 74.5973 73.7695 76.1284 74.7627ZM55.1895 78.5829V79.92H51.1702H47.1508V78.5829V77.2458H51.1702H55.1895V78.5829ZM26.4799 81.7154L27.2072 83.3581H24.3745C21.7715 83.3581 20.8911 83.0143 21.8481 82.4031C22.0395 82.2885 22.3074 81.6772 22.4606 81.0278C22.6902 79.9582 22.8051 79.8818 24.2214 79.9964C25.5995 80.111 25.8292 80.2638 26.4799 81.7154ZM44.4713 80.3784C44.4713 80.6076 44.8541 81.2188 45.3134 81.7154C46.079 82.5559 46.3853 82.5941 51.2467 82.5941C55.8403 82.5941 56.4145 82.5177 57.1035 81.83C57.5246 81.4098 57.8691 80.7986 57.8691 80.493C57.8691 80.0346 58.5964 79.92 62.0416 79.92H66.214L66.482 81.066C66.6351 81.6772 66.9031 82.2885 67.0945 82.4031C68.3577 83.2053 66.2906 83.3581 53.1607 83.3581H38.8442L39.6481 81.639C40.4519 79.92 40.4519 79.92 42.4807 79.92C43.744 79.92 44.4713 80.0728 44.4713 80.3784Z" fill="url(#paint2_linear_68_1114)"/>
<path id="Vector_4" d="M14.6134 77.7804C13.5799 79.041 15.3025 80.5309 16.4508 79.3848C16.9485 78.8882 16.9868 78.6208 16.6805 78.086C16.1063 77.2073 15.2259 77.0927 14.6134 77.7804Z" fill="url(#paint3_linear_68_1114)"/>
<path id="Vector_5" d="M32.2215 77.8195C31.609 78.5835 31.877 79.6914 32.7574 79.8442C33.7909 80.0734 34.5948 78.8892 34.0972 77.9723C33.6378 77.0937 32.8722 77.0555 32.2215 77.8195Z" fill="url(#paint4_linear_68_1114)"/>
<path id="Vector_6" d="M72.4152 77.7804C71.3816 79.041 73.1042 80.5309 74.2526 79.3848C74.7502 78.8882 74.7885 78.6208 74.4823 78.086C73.9081 77.2073 73.0277 77.0927 72.4152 77.7804Z" fill="url(#paint5_linear_68_1114)"/>
</g>
<defs>
<linearGradient id="paint0_linear_68_1114" x1="27.6282" y1="52.4434" x2="27.6282" y2="0.107166" gradientUnits="userSpaceOnUse">
<stop stop-color="#27D0A5"/>
<stop offset="1" stop-color="#029ECF"/>
</linearGradient>
<linearGradient id="paint1_linear_68_1114" x1="64.7594" y1="37.4443" x2="64.7594" y2="17.7111" gradientUnits="userSpaceOnUse">
<stop stop-color="#27D0A5"/>
<stop offset="1" stop-color="#029ECF"/>
</linearGradient>
<linearGradient id="paint2_linear_68_1114" x1="43.1363" y1="86.0322" x2="43.1363" y2="45.1564" gradientUnits="userSpaceOnUse">
<stop stop-color="#27D0A5"/>
<stop offset="1" stop-color="#029ECF"/>
</linearGradient>
<linearGradient id="paint3_linear_68_1114" x1="15.5857" y1="79.7949" x2="15.5857" y2="77.3353" gradientUnits="userSpaceOnUse">
<stop stop-color="#27D0A5"/>
<stop offset="1" stop-color="#029ECF"/>
</linearGradient>
<linearGradient id="paint4_linear_68_1114" x1="33.069" y1="79.873" x2="33.069" y2="77.2778" gradientUnits="userSpaceOnUse">
<stop stop-color="#27D0A5"/>
<stop offset="1" stop-color="#029ECF"/>
</linearGradient>
<linearGradient id="paint5_linear_68_1114" x1="73.3875" y1="79.7949" x2="73.3875" y2="77.3353" gradientUnits="userSpaceOnUse">
<stop stop-color="#27D0A5"/>
<stop offset="1" stop-color="#029ECF"/>
</linearGradient>
</defs>
</svg>
