<svg width="96" height="81" viewBox="0 0 96 81" fill="none" xmlns="http://www.w3.org/2000/svg">
<path d="M23.9939 10.4914L0.227051 21.1553L23.4555 31.5775C36.2406 37.3258 46.9263 42.1071 47.2493 42.2414C47.6799 42.4563 52.2826 40.4954 70.8815 32.1416C83.5589 26.447 94.2446 21.6119 94.5945 21.4508C95.1597 21.1284 93.3294 20.242 72.1735 10.76C59.496 5.06538 48.8373 0.284077 48.4336 0.12291C47.8145 -0.145702 45.3921 0.875027 23.9939 10.4914Z" fill="url(#paint0_linear_68_1146)"/>
<path d="M7.09033 37.4068C4.12958 38.723 1.38415 39.9587 0.980407 40.1198C0.253676 40.4422 1.46489 41.0062 23.9936 51.1329L47.7604 61.7969L71.4464 51.1867C84.4469 45.3309 95.1325 40.5227 95.1594 40.4959C95.2133 40.4422 92.4947 39.2065 89.1572 37.7023L83.0742 34.9625L65.4442 42.8865C55.7544 47.2381 47.6796 50.7569 47.5181 50.7032C47.3566 50.6226 39.9009 47.2918 30.9379 43.2626C21.9749 39.2334 14.1423 35.7146 13.5502 35.4728L12.4466 34.9893L7.09033 37.4068Z" fill="url(#paint1_linear_68_1146)"/>
<path d="M6.2563 57.0421C2.94564 58.5195 0.280954 59.7551 0.334786 59.7819C0.792358 60.158 47.5723 80.9755 47.8953 80.9218C48.1107 80.9218 58.4195 76.3554 70.7739 70.7951C83.1283 65.2348 93.7063 60.4803 94.2985 60.2386L95.3482 59.7819L89.2114 57.0152L83.0745 54.2754L65.4176 62.1995L47.7607 70.1235L30.1308 62.1995C20.441 57.8479 12.447 54.2754 12.3662 54.3022C12.2855 54.3022 9.54005 55.5379 6.2563 57.0421Z" fill="url(#paint2_linear_68_1146)"/>
<defs>
<linearGradient id="paint0_linear_68_1146" x1="47.4518" y1="42.2568" x2="47.4518" y2="0.0868454" gradientUnits="userSpaceOnUse">
<stop stop-color="#27D0A5"/>
<stop offset="1" stop-color="#029ECF"/>
</linearGradient>
<linearGradient id="paint1_linear_68_1146" x1="47.9981" y1="61.7969" x2="47.9981" y2="34.9625" gradientUnits="userSpaceOnUse">
<stop stop-color="#18876B"/>
<stop offset="1" stop-color="#02799F"/>
</linearGradient>
<linearGradient id="paint2_linear_68_1146" x1="47.8411" y1="80.9219" x2="47.8411" y2="54.2754" gradientUnits="userSpaceOnUse">
<stop stop-color="#058F6C"/>
<stop offset="1" stop-color="#03556F"/>
</linearGradient>
</defs>
</svg>
