<svg width="18" height="19" viewBox="0 0 18 19" fill="none" xmlns="http://www.w3.org/2000/svg">
<path d="M9.92521 0.92591C10.5819 0.923395 11.2387 0.929982 11.8952 0.945669L12.0698 0.951956C12.2714 0.959141 12.4703 0.968122 12.7106 0.9789C13.6681 1.02381 14.3215 1.17469 14.8948 1.39654C15.4887 1.62466 15.9891 1.93362 16.4895 2.43299C16.947 2.88171 17.3011 3.42449 17.5271 4.0236C17.7494 4.59571 17.9006 5.24866 17.9456 6.20428C17.9564 6.44318 17.9654 6.64257 17.9726 6.84376L17.978 7.01799C17.994 7.67291 18.0009 8.32802 17.9987 8.98313L17.9996 9.65314V10.8297C18.0018 11.4851 17.9949 12.1405 17.9789 12.7957L17.9735 12.97C17.9663 13.1712 17.9573 13.3696 17.9465 13.6094C17.9015 14.5651 17.7485 15.2171 17.5271 15.7892C17.3018 16.389 16.9476 16.9322 16.4895 17.3807C16.0395 17.8373 15.4953 18.1906 14.8948 18.4163C14.3215 18.6381 13.6681 18.789 12.7106 18.8339C12.4703 18.8447 12.2714 18.8537 12.0698 18.8609L11.8952 18.8663C11.2387 18.8822 10.5819 18.8891 9.92521 18.8869L9.25384 18.8878H8.0758C7.41907 18.89 6.76235 18.8831 6.10581 18.8672L5.93122 18.8618C5.71758 18.854 5.50398 18.8451 5.29045 18.8348C4.3329 18.7899 3.67953 18.6372 3.10536 18.4163C2.50481 18.1912 1.96083 17.8377 1.51154 17.3807C1.05351 16.9319 0.699085 16.3888 0.472995 15.7892C0.250706 15.2171 0.0995141 14.5651 0.0545165 13.6094C0.0444936 13.3963 0.035494 13.1832 0.0275179 12.97L0.0230182 12.7957C0.00642628 12.1405 -0.00107414 11.4851 0.000519274 10.8297V8.98313C-0.00199247 8.32802 0.0046079 7.67292 0.0203183 7.01799L0.026618 6.84376C0.0338176 6.64257 0.0428171 6.44318 0.0536166 6.20428C0.0986143 5.24776 0.249806 4.59661 0.472095 4.0236C0.698319 3.42419 1.05343 2.88156 1.51244 2.43389C1.96142 1.97651 2.50506 1.62248 3.10536 1.39654C3.67953 1.17469 4.332 1.02381 5.29045 0.9789L5.93122 0.951956L6.10581 0.947465C6.76204 0.930915 7.41847 0.92343 8.07491 0.925012L9.92521 0.92591ZM9.00006 5.41661C8.40384 5.4082 7.8119 5.51812 7.25863 5.74C6.70535 5.96188 6.20178 6.29129 5.77718 6.70908C5.35258 7.12688 5.01542 7.62472 4.78529 8.17369C4.55516 8.72265 4.43665 9.31179 4.43665 9.90686C4.43665 10.5019 4.55516 11.0911 4.78529 11.64C5.01542 12.189 5.35258 12.6868 5.77718 13.1046C6.20178 13.5224 6.70535 13.8518 7.25863 14.0737C7.8119 14.2956 8.40384 14.4055 9.00006 14.3971C10.1935 14.3971 11.338 13.924 12.1819 13.0818C13.0257 12.2396 13.4998 11.0974 13.4998 9.90641C13.4998 8.71541 13.0257 7.57318 12.1819 6.73101C11.338 5.88884 10.1935 5.41661 9.00006 5.41661ZM9.00006 7.21289C9.3587 7.2063 9.71506 7.27109 10.0483 7.40348C10.3816 7.53588 10.6851 7.73322 10.9411 7.98398C11.197 8.23475 11.4004 8.5339 11.5392 8.86398C11.6781 9.19405 11.7496 9.54843 11.7497 9.90641C11.7497 10.2644 11.6783 10.6188 11.5396 10.9489C11.4009 11.279 11.1976 11.5782 10.9417 11.8291C10.6858 12.0799 10.3824 12.2774 10.0492 12.4099C9.71594 12.5424 9.3596 12.6073 9.00096 12.6008C8.28491 12.6008 7.59819 12.317 7.09187 11.8117C6.58555 11.3064 6.3011 10.621 6.3011 9.90641C6.3011 9.19181 6.58555 8.50647 7.09187 8.00117C7.59819 7.49587 8.28491 7.21199 9.00096 7.21199L9.00006 7.21289ZM13.7248 4.0694C13.4345 4.081 13.1599 4.20426 12.9586 4.41336C12.7573 4.62247 12.6449 4.9012 12.6449 5.19118C12.6449 5.48116 12.7573 5.75989 12.9586 5.96899C13.1599 6.1781 13.4345 6.30136 13.7248 6.31295C14.0232 6.31295 14.3093 6.19467 14.5203 5.98413C14.7312 5.77359 14.8498 5.48803 14.8498 5.19028C14.8498 4.89253 14.7312 4.60697 14.5203 4.39643C14.3093 4.18589 14.0232 4.0676 13.7248 4.0676V4.0694Z" fill="white"/>
</svg>
