<svg width="15" height="14" viewBox="0 0 15 14" fill="none" xmlns="http://www.w3.org/2000/svg">
<path d="M1 6.15C0.530558 6.15 0.15 6.53056 0.15 7C0.15 7.46944 0.530558 7.85 1 7.85L1 6.15ZM14.601 7.60104C14.933 7.2691 14.933 6.7309 14.601 6.39896L9.19167 0.989592C8.85973 0.657647 8.32154 0.657647 7.98959 0.989592C7.65765 1.32154 7.65765 1.85973 7.98959 2.19167L12.7979 7L7.98959 11.8083C7.65765 12.1403 7.65765 12.6785 7.98959 13.0104C8.32154 13.3424 8.85973 13.3424 9.19167 13.0104L14.601 7.60104ZM1 7.85L14 7.85V6.15L1 6.15L1 7.85Z" fill="url(#paint0_linear_19_30)"/>
<defs>
<linearGradient id="paint0_linear_19_30" x1="14" y1="6.5" x2="0.017869" y2="7.30888" gradientUnits="userSpaceOnUse">
<stop stop-color="#029ECF"/>
<stop offset="1" stop-color="#27D0A5"/>
</linearGradient>
</defs>
</svg>
