<svg width="19" height="17" viewBox="0 0 19 17" fill="none" xmlns="http://www.w3.org/2000/svg">
<path fill-rule="evenodd" clip-rule="evenodd" d="M17.0319 0.144386C17.2655 0.0416161 17.5212 0.00617134 17.7724 0.0417408C18.0236 0.0773103 18.261 0.182594 18.46 0.346633C18.659 0.510672 18.8124 0.72747 18.904 0.974462C18.9957 1.22145 19.0223 1.48961 18.9812 1.75102L16.8372 15.3441C16.6292 16.6553 15.2528 17.4073 14.1023 16.7541C13.14 16.2077 11.7107 15.3659 10.425 14.4875C9.78218 14.0478 7.81306 12.6397 8.05506 11.6378C8.26303 10.7812 11.5717 7.56196 13.4624 5.64804C14.2044 4.8961 13.866 4.46233 12.9897 5.15399C10.8126 6.87129 7.31959 9.48281 6.1644 10.2179C5.14533 10.8661 4.61405 10.9768 3.97879 10.8661C2.81982 10.6646 1.74498 10.3523 0.867708 9.97191C-0.317737 9.45811 -0.260072 7.75464 0.866763 7.25862L17.0319 0.144386Z" fill="white"/>
</svg>
