<svg width="23" height="19" viewBox="0 0 23 19" fill="none" xmlns="http://www.w3.org/2000/svg">
<g id="Group 134">
<path id="Vector" d="M23 4.38281V15.0095C23 15.8686 22.6638 16.6953 22.0601 17.3204C21.4564 17.9454 20.6309 18.3217 19.7524 18.3721L19.55 18.3777H3.45C2.57001 18.3777 1.72326 18.0495 1.083 17.4601C0.442742 16.8707 0.0573764 16.0647 0.00575013 15.2071L0 15.0095V4.38281L10.8617 11.4527L10.9951 11.5268C11.1524 11.6018 11.325 11.6407 11.5 11.6407C11.675 11.6407 11.8476 11.6018 12.0048 11.5268L12.1383 11.4527L23 4.38281Z" fill="white"/>
<path id="Vector_2" d="M19.5497 0.414062C20.7917 0.414062 21.8808 1.05402 22.488 2.0162L11.4997 9.16801L0.511475 2.0162C0.799814 1.55899 1.19597 1.17573 1.66689 0.89839C2.13781 0.621054 2.66983 0.457688 3.21857 0.421922L3.44972 0.414062H19.5497Z" fill="white"/>
</g>
</svg>
