<svg width="18" height="19" viewBox="0 0 18 19" fill="none" xmlns="http://www.w3.org/2000/svg">
<path id="Vector" d="M9.92521 0.315558C10.5819 0.313043 11.2387 0.31963 11.8952 0.335317L12.0698 0.341604C12.2714 0.348789 12.4703 0.357771 12.7106 0.368548C13.6681 0.413455 14.3215 0.564343 14.8948 0.786184C15.4887 1.01431 15.9891 1.32327 16.4895 1.82264C16.947 2.27135 17.3011 2.81414 17.5271 3.41324C17.7494 3.98536 17.9006 4.63831 17.9456 5.59393C17.9564 5.83283 17.9654 6.03222 17.9726 6.2334L17.978 6.40764C17.994 7.06256 18.0009 7.71767 17.9987 8.37277L17.9996 9.04279V10.2193C18.0018 10.8748 17.9949 11.5302 17.9789 12.1854L17.9735 12.3596C17.9663 12.5608 17.9573 12.7593 17.9465 12.9991C17.9015 13.9547 17.7485 14.6068 17.5271 15.1789C17.3018 15.7786 16.9476 16.3219 16.4895 16.7704C16.0395 17.2269 15.4953 17.5803 14.8948 17.8059C14.3215 18.0278 13.6681 18.1787 12.7106 18.2236C12.4703 18.2344 12.2714 18.2433 12.0698 18.2505L11.8952 18.2559C11.2387 18.2719 10.5819 18.2788 9.92521 18.2766L9.25384 18.2775H8.0758C7.41907 18.2797 6.76235 18.2728 6.10581 18.2568L5.93122 18.2514C5.71758 18.2437 5.50398 18.2347 5.29045 18.2245C4.3329 18.1796 3.67953 18.0269 3.10536 17.8059C2.50481 17.5808 1.96083 17.2274 1.51154 16.7704C1.05351 16.3216 0.699085 15.7784 0.472995 15.1789C0.250706 14.6068 0.0995141 13.9547 0.0545165 12.9991C0.0444936 12.786 0.035494 12.5728 0.0275179 12.3596L0.0230182 12.1854C0.00642628 11.5302 -0.00107414 10.8748 0.000519274 10.2193V8.37277C-0.00199247 7.71767 0.0046079 7.06256 0.0203183 6.40764L0.026618 6.2334C0.0338176 6.03222 0.0428171 5.83283 0.0536166 5.59393C0.0986143 4.63741 0.249806 3.98626 0.472095 3.41324C0.698319 2.81384 1.05343 2.27121 1.51244 1.82354C1.96142 1.36616 2.50506 1.01213 3.10536 0.786184C3.67953 0.564343 4.332 0.413455 5.29045 0.368548L5.93122 0.341604L6.10581 0.337114C6.76204 0.320564 7.41847 0.313078 8.07491 0.31466L9.92521 0.315558ZM9.00006 4.80626C8.40384 4.79784 7.8119 4.90777 7.25863 5.12965C6.70535 5.35153 6.20178 5.68094 5.77718 6.09873C5.35258 6.51653 5.01542 7.01437 4.78529 7.56334C4.55516 8.1123 4.43665 8.70144 4.43665 9.29651C4.43665 9.89158 4.55516 10.4807 4.78529 11.0297C5.01542 11.5787 5.35258 12.0765 5.77718 12.4943C6.20178 12.9121 6.70535 13.2415 7.25863 13.4634C7.8119 13.6853 8.40384 13.7952 9.00006 13.7868C10.1935 13.7868 11.338 13.3136 12.1819 12.4715C13.0257 11.6293 13.4998 10.4871 13.4998 9.29606C13.4998 8.10505 13.0257 6.96283 12.1819 6.12066C11.338 5.27849 10.1935 4.80626 9.00006 4.80626ZM9.00006 6.60254C9.3587 6.59594 9.71506 6.66074 10.0483 6.79313C10.3816 6.92553 10.6851 7.12287 10.9411 7.37363C11.197 7.6244 11.4004 7.92355 11.5392 8.25363C11.6781 8.5837 11.7496 8.93808 11.7497 9.29605C11.7497 9.65403 11.6783 10.0084 11.5396 10.3385C11.4009 10.6687 11.1976 10.9679 10.9417 11.2187C10.6858 11.4696 10.3824 11.667 10.0492 11.7995C9.71594 11.932 9.3596 11.997 9.00096 11.9905C8.28491 11.9905 7.59819 11.7066 7.09187 11.2013C6.58555 10.696 6.3011 10.0107 6.3011 9.29606C6.3011 8.58146 6.58555 7.89612 7.09187 7.39082C7.59819 6.88552 8.28491 6.60164 9.00096 6.60164L9.00006 6.60254ZM13.7248 3.45905C13.4345 3.47065 13.1599 3.59391 12.9586 3.80301C12.7573 4.01212 12.6449 4.29085 12.6449 4.58083C12.6449 4.8708 12.7573 5.14954 12.9586 5.35864C13.1599 5.56775 13.4345 5.69101 13.7248 5.7026C14.0232 5.7026 14.3093 5.58432 14.5203 5.37378C14.7312 5.16324 14.8498 4.87768 14.8498 4.57993C14.8498 4.28218 14.7312 3.99662 14.5203 3.78608C14.3093 3.57553 14.0232 3.45725 13.7248 3.45725V3.45905Z" fill="white"/>
</svg>
