<svg width="19" height="24" viewBox="0 0 19 24" fill="none" xmlns="http://www.w3.org/2000/svg">
<path id="Vector" d="M9.28125 0.298828C6.82057 0.301614 4.46147 1.27836 2.7215 3.0148C0.981531 4.75123 0.00279148 7.10553 0 9.56121C0 17.4869 8.4375 23.4727 8.79715 23.7232C8.93902 23.8224 9.10804 23.8756 9.28125 23.8756C9.45446 23.8756 9.62348 23.8224 9.76535 23.7232C10.125 23.4727 18.5625 17.4869 18.5625 9.56121C18.5597 7.10553 17.581 4.75123 15.841 3.0148C14.101 1.27836 11.7419 0.301614 9.28125 0.298828ZM9.28125 6.19307C9.94876 6.19307 10.6013 6.39061 11.1563 6.76071C11.7113 7.1308 12.1439 7.65683 12.3993 8.27228C12.6548 8.88773 12.7216 9.56495 12.5914 10.2183C12.4612 10.8717 12.1397 11.4718 11.6677 11.9428C11.1957 12.4139 10.5944 12.7347 9.93968 12.8646C9.28499 12.9946 8.60639 12.9279 7.98969 12.673C7.37299 12.418 6.84589 11.9863 6.47504 11.4325C6.10419 10.8786 5.90625 10.2274 5.90625 9.56121C5.90625 8.66793 6.26183 7.81123 6.89476 7.17958C7.5277 6.54793 8.38614 6.19307 9.28125 6.19307Z" fill="white"/>
</svg>
