<svg width="21" height="21" viewBox="0 0 21 21" fill="none" xmlns="http://www.w3.org/2000/svg">
<path id="Vector" d="M4.0725 9.28695C5.6925 12.4642 8.3025 15.0577 11.4862 16.6856L13.9613 14.2157C14.265 13.9125 14.715 13.8115 15.1088 13.9462C16.3687 14.3616 17.73 14.5862 19.125 14.5862C19.7437 14.5862 20.25 15.0914 20.25 15.7089V19.6271C20.25 20.2446 19.7437 20.7499 19.125 20.7499C8.56125 20.7499 0 12.206 0 1.66373C0 1.04624 0.50625 0.541016 1.125 0.541016H5.0625C5.68125 0.541016 6.1875 1.04624 6.1875 1.66373C6.1875 3.06712 6.4125 4.41438 6.82875 5.67182C6.9525 6.06477 6.8625 6.50262 6.5475 6.81698L4.0725 9.28695Z" fill="white"/>
</svg>
