<svg width="19" height="18" viewBox="0 0 19 18" fill="none" xmlns="http://www.w3.org/2000/svg">
<path id="Vector" fill-rule="evenodd" clip-rule="evenodd" d="M17.0319 0.428566C17.2655 0.325796 17.5212 0.290351 17.7724 0.32592C18.0236 0.36149 18.261 0.466774 18.46 0.630813C18.659 0.794852 18.8124 1.01165 18.904 1.25864C18.9957 1.50563 19.0223 1.77379 18.9812 2.0352L16.8372 15.6283C16.6292 16.9395 15.2528 17.6915 14.1023 17.0383C13.14 16.4919 11.7107 15.6501 10.425 14.7717C9.78218 14.332 7.81306 12.9239 8.05506 11.922C8.26303 11.0653 11.5717 7.84614 13.4624 5.93222C14.2044 5.18028 13.866 4.74651 12.9897 5.43817C10.8126 7.15547 7.31959 9.76699 6.1644 10.5021C5.14533 11.1503 4.61405 11.261 3.97879 11.1503C2.81982 10.9487 1.74498 10.6365 0.867708 10.2561C-0.317737 9.74229 -0.260072 8.03882 0.866763 7.5428L17.0319 0.428566Z" fill="white"/>
</svg>
