<svg width="238" height="64" viewBox="0 0 238 64" fill="none" xmlns="http://www.w3.org/2000/svg">
<path d="M97.0749 0.264233C94.8032 0.453547 93.6673 1.06881 82.7818 8.02604L70.9498 15.6459L53.2964 13.9421C33.4186 12.0016 31.9988 11.9543 28.1179 12.9482C25.1835 13.7054 19.8354 16.3558 19.8354 17.0184C19.8354 20.568 61.0109 25.8214 115.912 29.2764C146.58 31.2168 180.988 32.4474 189.507 31.8794L195.186 31.5481L197.174 29.4657C201.291 25.0168 204.462 17.0184 205.125 9.06726C205.74 2.15736 205.409 2.44133 196.795 15.7405L189.033 27.8092L187.377 27.5726C185.957 27.3832 153.301 24.0229 114.018 20.0474C100.483 18.6749 99.3467 18.2962 96.5543 14.51C93.7146 10.6291 94.2353 7.12681 98.4001 2.81995C100.909 0.216906 101.098 -0.114391 100.199 0.0275917C99.8673 0.0749207 98.4475 0.169577 97.0749 0.264233Z" fill="url(#paint0_linear_65_991)"/>
<path d="M9.99151 23.5499C3.93351 25.6324 0.620544 29.182 0.0999342 34.1041C-0.136706 36.5178 -0.0420501 36.8018 1.37779 38.4583C4.83275 42.3865 14.1564 45.2262 29.538 47.0247C41.7014 48.4445 45.8662 48.3972 64.0876 46.788L81.1257 45.3209L107.393 47.9239C121.828 49.3911 134.701 50.7163 135.932 50.8583L138.251 51.1422L137.304 52.1834C135.648 53.8873 135.553 55.4491 136.973 57.1056C138.582 58.9987 140.854 59.7086 144.735 59.472C148.616 59.2827 153.396 57.1056 155.62 54.5499C157.182 52.7987 157.513 52.7514 163.713 53.6979L165.37 53.9819L163.903 54.5972C162.057 55.3544 160.4 57.4369 160.4 58.9514C160.4 61.6491 165.938 64.3941 169.677 63.5422C174.031 62.5956 179.994 59.7086 182.928 57.1056L184.49 55.7331L209.953 58.2888L235.415 60.8445L236.457 59.8979C237.072 59.3773 237.45 58.8567 237.356 58.7621C237.261 58.6674 213.834 54.6445 185.248 49.8644C156.661 45.0842 133.187 41.014 133.045 40.872C132.903 40.73 133.234 40.6354 133.707 40.6354C134.228 40.6354 146.675 39.5942 161.394 38.269C176.066 36.9911 188.939 35.9026 189.98 35.9026C191.4 35.9026 191.684 35.7606 191.164 35.4293C190.785 35.1927 186.289 34.956 180.988 34.956C166.979 34.956 114.208 33.5835 88.6982 32.5896C67.6845 31.7377 40.8021 29.9392 31.9518 28.756C24.3319 27.7621 16.7121 25.3484 15.1503 23.4079C14.3457 22.4614 13.1625 22.5087 9.99151 23.5499Z" fill="url(#paint1_linear_65_991)"/>
<defs>
<linearGradient id="paint0_linear_65_991" x1="112.579" y1="32.0186" x2="112.579" y2="2.28882e-05" gradientUnits="userSpaceOnUse">
<stop stop-color="#27D0A5"/>
<stop offset="1" stop-color="#029ECF"/>
</linearGradient>
<linearGradient id="paint1_linear_65_991" x1="118.685" y1="63.7002" x2="118.685" y2="22.7318" gradientUnits="userSpaceOnUse">
<stop stop-color="#27D0A5"/>
<stop offset="1" stop-color="#029ECF"/>
</linearGradient>
</defs>
</svg>
