<svg width="227" height="88" viewBox="0 0 227 88" fill="none" xmlns="http://www.w3.org/2000/svg">
<path d="M88.0302 2.08246C76.1982 3.21833 65.8807 4.21223 65.0761 4.30688L63.6563 4.44887L62.899 15.3343C62.473 21.2977 62.1418 26.2671 62.1891 26.3145C62.2364 26.3618 73.2165 28.7755 86.6104 31.6625L110.984 36.916L132.708 38.5251C144.682 39.4243 154.526 40.0869 154.621 40.0396C154.668 39.945 144.777 37.6732 132.613 34.9755C120.45 32.2778 110.322 29.9114 110.085 29.7221C109.659 29.3435 110.937 8.61374 111.41 8.14046C111.647 7.90382 154.668 20.9664 155.946 21.629C156.277 21.771 156.277 21.7236 155.946 21.3923C154.858 20.3511 111.694 -0.0473022 110.653 2.28882e-05C110.085 0.0473518 99.8623 0.993916 88.0302 2.08246Z" fill="url(#paint0_linear_65_992)"/>
<path d="M-0.000244141 20.0675C-0.000244141 20.1621 2.9341 25.3209 6.53104 31.5209C10.128 37.7209 18.789 52.5819 25.6989 64.5559C32.6562 76.5773 38.6195 86.7528 38.9981 87.2734C39.7554 88.3146 38.7615 88.362 90.6331 84.6704C101.329 83.9131 131.667 81.7834 158.076 79.9376C184.485 78.0918 209.853 76.3406 214.396 76.0093L222.679 75.3941L206.587 75.0628C197.737 74.8735 159.827 74.4948 122.343 74.2109L54.1905 73.6903L52.392 71.7025C48.937 67.9636 42.9264 60.2964 40.0867 56.0369C33.0821 45.4354 31.4256 38.8094 35.3539 37.2949C40.0867 35.4491 110.416 43.7789 205.309 57.504C215.295 58.9239 223.672 60.0598 223.956 59.9651C224.24 59.8704 218.703 58.7819 211.746 57.5514C204.741 56.3208 194.329 54.475 188.602 53.4811C182.876 52.4399 161.909 48.701 141.984 45.1514C122.059 41.6491 101.755 38.0049 96.7858 37.1056C91.8636 36.2064 68.5309 32.0415 44.9615 27.8766C21.3921 23.7118 1.65624 20.2095 1.0883 20.0675C0.473037 19.9255 -0.000244141 19.9255 -0.000244141 20.0675Z" fill="url(#paint1_linear_65_992)"/>
<path d="M175.493 32.0881C168.251 32.7981 162.146 33.5553 161.909 33.792C161.673 34.0759 161.341 36.9629 161.152 40.2759L160.821 46.2866L161.957 46.5705C162.525 46.7125 169.009 48.085 176.297 49.6942C188.65 52.3446 190.354 52.5812 201.807 53.4331C208.575 53.9537 214.16 54.285 214.254 54.2377C214.302 54.143 208.622 52.8179 201.57 51.256L188.744 48.4637L189.076 42.311C189.265 38.9034 189.549 36.0164 189.691 35.8271C189.88 35.6378 195.512 37.1996 202.28 39.282C209.001 41.3645 214.586 43.0209 214.633 42.9263C214.87 42.6896 190.212 30.9523 189.36 30.9049C188.934 30.8576 182.686 31.3782 175.493 32.0881Z" fill="url(#paint2_linear_65_992)"/>
<path d="M48.322 43.3994C46.6655 44.2987 44.9617 46.8071 44.9617 48.3689C44.9617 50.0727 46.3815 52.4864 47.896 53.433C51.5403 55.7047 56.7937 53.007 56.7937 48.8422C56.7937 46.4758 55.2792 44.062 53.2441 43.2101C51.1143 42.3582 50.2624 42.3582 48.322 43.3994Z" fill="url(#paint3_linear_65_992)"/>
<path d="M114.676 55.7999C110.416 57.5037 111.079 66.7327 115.433 66.6854C118.793 66.638 120.781 61.7159 119.03 57.9297C118.462 56.7465 116.474 55.1373 115.812 55.3739C115.764 55.3739 115.244 55.5633 114.676 55.7999Z" fill="url(#paint4_linear_65_992)"/>
<path d="M135.216 58.2133C134.08 58.8759 132.992 61.1477 132.992 62.8515C132.992 67.253 137.015 68.9568 138.861 65.3125C140.28 62.6148 139.571 59.2072 137.393 58.2133C136.068 57.5981 136.258 57.5981 135.216 58.2133Z" fill="url(#paint5_linear_65_992)"/>
<path d="M155.851 60.7692C153.769 62.2363 153.911 66.7798 156.041 67.7737C157.082 68.247 157.366 68.1524 158.36 67.0165C159.969 65.1234 159.732 61.6684 157.886 60.4379C157.177 59.9173 156.987 59.9646 155.851 60.7692Z" fill="url(#paint6_linear_65_992)"/>
<path d="M225.424 60.3909C225.85 60.4856 226.512 60.4856 226.844 60.3909C227.128 60.2489 226.796 60.1543 225.992 60.1543C225.234 60.1543 224.95 60.2489 225.424 60.3909Z" fill="url(#paint7_linear_65_992)"/>
<path d="M165.98 62.3313C165.033 63.3725 164.891 66.6855 165.743 67.5374C167.21 69.0045 169.435 67.2534 169.435 64.6503C169.435 61.7633 167.589 60.5328 165.98 62.3313Z" fill="url(#paint8_linear_65_992)"/>
<path d="M176.534 63.372C174.925 64.9812 175.587 68.5781 177.48 68.5781C179.279 68.5781 180.083 64.6499 178.616 63.1827C177.67 62.2362 177.67 62.2362 176.534 63.372Z" fill="url(#paint9_linear_65_992)"/>
<path d="M187.041 64.4142C186.236 65.2188 186.331 67.8691 187.23 68.6264C187.893 69.147 188.082 69.0997 188.65 68.3424C190.259 66.1653 188.839 62.6157 187.041 64.4142Z" fill="url(#paint10_linear_65_992)"/>
<path d="M197.358 65.7388C196.601 67.1587 197.169 69.1465 198.21 68.9571C199.251 68.7678 199.535 66.1175 198.589 65.3129C198.021 64.8396 197.784 64.9343 197.358 65.7388Z" fill="url(#paint11_linear_65_992)"/>
<path d="M208.102 66.5438C207.912 66.6858 207.77 67.4431 207.77 68.2003C207.77 70.0935 208.906 69.6675 209.095 67.7271C209.237 66.3072 208.811 65.7866 208.102 66.5438Z" fill="url(#paint12_linear_65_992)"/>
<defs>
<linearGradient id="paint0_linear_65_992" x1="109.19" y1="40.042" x2="109.19" y2="-6.10352e-05" gradientUnits="userSpaceOnUse">
<stop stop-color="#27D0A5"/>
<stop offset="1" stop-color="#029ECF"/>
</linearGradient>
<linearGradient id="paint1_linear_65_992" x1="111.983" y1="87.8838" x2="111.983" y2="19.961" gradientUnits="userSpaceOnUse">
<stop stop-color="#27D0A5"/>
<stop offset="1" stop-color="#029ECF"/>
</linearGradient>
<linearGradient id="paint2_linear_65_992" x1="187.728" y1="54.2422" x2="187.728" y2="30.902" gradientUnits="userSpaceOnUse">
<stop stop-color="#27D0A5"/>
<stop offset="1" stop-color="#029ECF"/>
</linearGradient>
<linearGradient id="paint3_linear_65_992" x1="50.8777" y1="54.2598" x2="50.8777" y2="42.5931" gradientUnits="userSpaceOnUse">
<stop stop-color="#27D0A5"/>
<stop offset="1" stop-color="#029ECF"/>
</linearGradient>
<linearGradient id="paint4_linear_65_992" x1="115.741" y1="66.6855" x2="115.741" y2="55.3506" gradientUnits="userSpaceOnUse">
<stop stop-color="#27D0A5"/>
<stop offset="1" stop-color="#029ECF"/>
</linearGradient>
<linearGradient id="paint5_linear_65_992" x1="136.295" y1="67.2959" x2="136.295" y2="57.7519" gradientUnits="userSpaceOnUse">
<stop stop-color="#27D0A5"/>
<stop offset="1" stop-color="#029ECF"/>
</linearGradient>
<linearGradient id="paint6_linear_65_992" x1="156.898" y1="68.042" x2="156.898" y2="60.0964" gradientUnits="userSpaceOnUse">
<stop stop-color="#27D0A5"/>
<stop offset="1" stop-color="#029ECF"/>
</linearGradient>
<linearGradient id="paint7_linear_65_992" x1="226.068" y1="60.4619" x2="226.068" y2="60.1543" gradientUnits="userSpaceOnUse">
<stop stop-color="#27D0A5"/>
<stop offset="1" stop-color="#029ECF"/>
</linearGradient>
<linearGradient id="paint8_linear_65_992" x1="167.307" y1="68.0713" x2="167.307" y2="61.4903" gradientUnits="userSpaceOnUse">
<stop stop-color="#27D0A5"/>
<stop offset="1" stop-color="#029ECF"/>
</linearGradient>
<linearGradient id="paint9_linear_65_992" x1="177.502" y1="68.5781" x2="177.502" y2="62.4948" gradientUnits="userSpaceOnUse">
<stop stop-color="#27D0A5"/>
<stop offset="1" stop-color="#029ECF"/>
</linearGradient>
<linearGradient id="paint10_linear_65_992" x1="187.922" y1="68.9717" x2="187.922" y2="63.9221" gradientUnits="userSpaceOnUse">
<stop stop-color="#27D0A5"/>
<stop offset="1" stop-color="#029ECF"/>
</linearGradient>
<linearGradient id="paint11_linear_65_992" x1="198.088" y1="68.9697" x2="198.088" y2="65.0266" gradientUnits="userSpaceOnUse">
<stop stop-color="#27D0A5"/>
<stop offset="1" stop-color="#029ECF"/>
</linearGradient>
<linearGradient id="paint12_linear_65_992" x1="208.446" y1="69.4209" x2="208.446" y2="66.1967" gradientUnits="userSpaceOnUse">
<stop stop-color="#27D0A5"/>
<stop offset="1" stop-color="#029ECF"/>
</linearGradient>
</defs>
</svg>
