<svg width="196" height="86" viewBox="0 0 196 86" fill="none" xmlns="http://www.w3.org/2000/svg">
<path d="M50.6411 4.35535C39.0931 6.76909 30.1481 8.75687 30.7633 8.85152C31.3786 8.94618 41.1282 8.33091 52.345 7.52634C63.609 6.76909 73.0273 6.10649 73.3113 6.10649C73.6426 6.10649 73.7846 17.2759 73.7846 38.9995C73.7846 65.5979 73.8792 71.8926 74.3999 71.8926C74.8731 71.8926 150.172 54.9964 181.929 47.7552C190.827 45.7675 191.064 45.5308 183.349 46.572C166.832 48.7965 87.5571 59.114 86.8945 59.114C86.2319 59.114 86.0899 58.6407 86.0899 56.5109C86.0899 54.9018 86.2792 53.9079 86.6105 53.9079C86.9418 53.9079 94.325 52.8667 103.081 51.5415C111.836 50.2636 134.838 46.856 154.242 43.969C173.647 41.1293 189.833 38.6682 190.212 38.5736C190.59 38.4316 189.313 38.4789 187.372 38.5736C185.432 38.7156 162.004 40.3721 135.311 42.2652C108.618 44.1583 86.6578 45.6255 86.4685 45.5308C86.2319 45.4362 86.0899 38.0056 86.0899 29.0606C86.0899 20.1156 86.2319 12.6851 86.4685 12.5904C86.6578 12.4958 91.4853 12.7798 97.212 13.253C102.939 13.7263 120.923 15.1935 137.204 16.5187C170.713 19.2637 188.082 20.6362 192.578 20.9675L195.654 21.2042L192.342 20.5889C189.455 19.9736 168.11 16.2347 94.325 3.26681C83.8655 1.46834 74.4945 -0.0461578 73.5006 0.0011673C72.4594 0.0011673 62.1892 1.98895 50.6411 4.35535Z" fill="url(#paint0_linear_65_994)"/>
<path d="M45.3877 13.0165C27.9709 15.0043 18.9786 16.0928 18.0793 16.2821C17.3694 16.4714 14.4824 20.1157 9.03967 27.9248L0.993891 39.2836L0.615266 45.7675C0.425953 49.3171 0.236641 53.7187 0.189312 55.5171V58.7354L9.89158 63.1843C15.2397 65.598 22.3389 68.6743 25.6992 70.0469L31.8045 72.4606L38.0518 71.2301C45.7663 69.7156 45.9556 69.7156 45.7663 71.0408C45.6243 71.9873 44.8671 72.2713 38.9984 73.7385L32.3724 75.3476L16.4229 68.6743C7.61983 64.9828 0.331297 61.9538 0.189312 61.9538C0 61.9538 -0.0473281 62.6163 0.0473281 63.4209C0.189312 64.7934 0.851906 65.2194 16.3282 73.3598L32.4671 81.8316L36.9159 80.2224C39.377 79.3232 41.7434 78.4713 42.1694 78.282C42.7846 78.0453 43.1159 78.282 43.4945 79.1812C44.1098 80.8377 52.7235 85.1445 55.4212 85.1445C58.8762 85.1445 61.5266 82.9674 63.7037 78.282C64.8395 75.7736 65.0288 74.8743 65.0288 70.6148V65.74L67.3006 65.456L69.525 65.1247L69.4304 40.9874L69.2884 16.8027L67.1586 16.1875C65.1708 15.5722 53.8594 12.9218 51.777 12.5432C51.2564 12.4485 48.3693 12.6852 45.3877 13.0165ZM39.9449 30.6699C36.774 37.9111 33.9816 44.1584 33.7449 44.537C33.3663 45.1049 31.1419 44.6317 19.5938 41.5553C12.0687 39.5676 5.91602 37.7218 5.96334 37.4851C6.01067 37.2011 8.89769 32.9416 12.3526 27.9722C18.0793 19.5951 18.7419 18.8852 20.0671 18.8378C20.8244 18.8378 25.3205 18.5539 30.006 18.2226C34.6915 17.8913 40.1342 17.56 42.122 17.5126L45.7663 17.4653L39.9449 30.6699ZM55.8945 19.3111C57.7876 19.8317 60.2487 20.4943 61.3846 20.7783L63.3724 21.2989V30.6225V39.9462L51.6823 42.8805C45.2457 44.4897 39.8976 45.7202 39.7556 45.6256C39.6136 45.4362 49.5525 21.3936 50.6884 19.2165C51.209 18.1752 51.6823 18.2226 55.8945 19.3111ZM7.00456 47.6133C9.13433 49.3645 9.18166 54.8072 7.09922 56.8896C3.88091 60.108 1.08855 51.3523 4.25953 47.9446C5.53739 46.5721 5.67937 46.5721 7.00456 47.6133ZM26.2198 54.7126C28.6808 57.1736 28.1602 63.7049 25.4152 64.6041C22.3389 65.5507 20.6351 58.3568 23.2381 55.0912C24.3267 53.7187 25.1312 53.624 26.2198 54.7126Z" fill="url(#paint1_linear_65_994)"/>
<path d="M184.296 48.9856C182.497 49.6009 180.604 50.0742 180.178 50.0742C178.758 50.1215 179.184 51.92 180.888 52.9612C183.397 54.523 184.438 54.6177 185.716 53.4345C186.899 52.2986 188.035 49.6482 187.751 48.5597C187.656 48.0864 186.851 48.1811 184.296 48.9856Z" fill="url(#paint2_linear_65_994)"/>
<path d="M174.594 51.7785C172.89 52.3937 171.139 52.9144 170.665 52.9144C169.198 53.009 169.955 54.5235 171.99 55.6594C175.351 57.5525 176.913 56.8426 178.143 52.7724C178.9 50.2167 178.995 50.264 174.594 51.7785Z" fill="url(#paint3_linear_65_994)"/>
<path d="M120.639 63.3733C118.935 63.8466 115.481 64.6985 112.925 65.3138C108.665 66.2603 108.334 66.4023 108.618 67.3489C109.044 68.816 109.659 69.2893 113.493 70.9458C117.658 72.7443 119.267 72.6023 121.491 70.3305C122.958 68.816 124.899 64.6985 124.899 63.1367C124.899 62.2374 124.473 62.2848 120.639 63.3733Z" fill="url(#paint4_linear_65_994)"/>
<path d="M105.021 66.7338C102.891 67.5857 92.5265 69.9995 90.9647 69.9995C90.1128 69.9995 89.4028 70.1888 89.4028 70.4254C89.4028 71.7979 90.4441 72.6972 94.325 74.5903C97.5906 76.1521 98.9631 76.6254 100.052 76.3888C102.749 75.8682 105.636 72.0819 106.252 68.1537C106.441 67.0651 106.488 66.2132 106.394 66.2606C106.299 66.2606 105.684 66.4972 105.021 66.7338Z" fill="url(#paint5_linear_65_994)"/>
<defs>
<linearGradient id="paint0_linear_65_994" x1="113.194" y1="71.8926" x2="113.194" y2="8.39233e-05" gradientUnits="userSpaceOnUse">
<stop stop-color="#27D0A5"/>
<stop offset="1" stop-color="#029ECF"/>
</linearGradient>
<linearGradient id="paint1_linear_65_994" x1="34.7625" y1="85.1445" x2="34.7625" y2="12.5222" gradientUnits="userSpaceOnUse">
<stop stop-color="#27D0A5"/>
<stop offset="1" stop-color="#029ECF"/>
</linearGradient>
<linearGradient id="paint2_linear_65_994" x1="183.559" y1="54.2383" x2="183.559" y2="48.2734" gradientUnits="userSpaceOnUse">
<stop stop-color="#27D0A5"/>
<stop offset="1" stop-color="#029ECF"/>
</linearGradient>
<linearGradient id="paint3_linear_65_994" x1="174.222" y1="56.6582" x2="174.222" y2="50.7282" gradientUnits="userSpaceOnUse">
<stop stop-color="#27D0A5"/>
<stop offset="1" stop-color="#029ECF"/>
</linearGradient>
<linearGradient id="paint4_linear_65_994" x1="116.721" y1="72.1777" x2="116.721" y2="62.5058" gradientUnits="userSpaceOnUse">
<stop stop-color="#27D0A5"/>
<stop offset="1" stop-color="#029ECF"/>
</linearGradient>
<linearGradient id="paint5_linear_65_994" x1="97.9219" y1="76.4463" x2="97.9219" y2="66.2587" gradientUnits="userSpaceOnUse">
<stop stop-color="#27D0A5"/>
<stop offset="1" stop-color="#029ECF"/>
</linearGradient>
</defs>
</svg>
