<svg width="247" height="73" viewBox="0 0 247 73" fill="none" xmlns="http://www.w3.org/2000/svg">
<path d="M41.4417 0.744606C35.5257 2.73239 29.8463 6.8026 22.7471 14.1385C15.7425 21.3797 11.0097 27.9583 6.04026 37.2819C-0.349038 49.2559 -1.57957 56.8284 1.92271 61.8925C5.61431 67.2406 17.115 71.8788 28.4265 72.636C46.2218 73.7719 116.551 64.1643 215.846 46.9842C228.435 44.8071 231.085 44.1918 226.495 44.6178C225.075 44.7124 185.887 47.2208 139.458 50.1552C57.202 55.3139 55.0249 55.4086 54.4096 54.5567C53.4157 53.1842 53.605 52.1429 55.1668 50.3445C56.2081 49.2086 57.2493 48.5933 58.8584 48.2147C67.5668 46.2269 114.422 42.204 193.602 36.572C235.818 33.5903 243.249 33.0224 245.189 32.5964C246.94 32.2178 246.846 32.1705 243.769 32.1231C240.362 32.0758 77.7424 36.9979 65.6737 37.5186L58.9531 37.8025L57.4386 34.6315C56.2554 32.0758 55.8768 30.6087 55.7348 27.5797C55.4981 23.2728 56.2554 20.8591 58.6691 17.972L59.9943 16.4575H69.5546C74.8553 16.4575 82.7118 16.5995 87.0187 16.7888L94.9225 17.0728L95.0171 24.456L95.1591 31.8392L97.5255 24.5507L99.8919 17.2621L107.464 17.5934C111.629 17.7354 116.883 18.0194 119.202 18.1614L123.319 18.4927V23.9827L123.367 29.4728L125.07 24.1247L126.822 18.8239H129.709C131.318 18.8239 135.246 18.9659 138.37 19.1552L144.144 19.4392L144.191 24.456L144.238 29.4728L145.895 24.598C147.457 20.0072 147.599 19.7705 148.877 19.7705C150.675 19.7705 203.115 22.8942 220.579 24.03C235.582 25.0239 241.214 25.1659 235.014 24.4087C233.073 24.172 215.609 22.1842 196.205 19.9598C116.409 10.8728 82.5225 6.75528 73.7668 5.05147C70.9271 4.53086 65.1531 3.20567 60.8462 2.16445C51.2859 -0.154625 45.4646 -0.580582 41.4417 0.744606ZM44.1867 11.7247C46.5531 13.1446 46.9318 14.6591 45.9379 18.5873C44.66 23.7461 38.8386 40.9735 37.3715 44.1445C36.5669 45.8483 35.5257 47.2208 34.8158 47.5521C33.1593 48.404 24.1196 48.3094 19.1975 47.4575C14.4173 46.6056 9.54254 45.0437 8.78529 44.1445C8.31201 43.5766 9.02193 41.9674 12.0983 36.0041C18.5822 23.4148 24.4036 15.5583 28.7104 13.3339C33.9165 10.7308 41.2524 9.92626 44.1867 11.7247ZM6.89216 52.1429C6.89216 53.9414 5.42499 56.0712 4.62041 55.5506C3.53187 54.888 4.24179 51.3384 5.66163 50.4391C6.46621 49.9185 6.89216 50.4865 6.89216 52.1429ZM10.6784 53.0895C10.6784 54.746 9.02193 57.349 8.26468 56.9231C7.69674 56.5445 7.74407 53.5155 8.31201 52.3796C8.59598 51.9063 9.25857 51.4804 9.73185 51.4804C10.4891 51.4804 10.6784 51.8116 10.6784 53.0895ZM28.1898 55.2193C28.8524 56.5445 28.8051 58.8162 28.0005 60.7093C26.77 63.6437 24.6875 62.4131 24.7822 58.7689C24.8295 55.2666 27.0066 53.0422 28.1898 55.2193ZM33.3013 55.3613C34.2951 56.3551 34.0112 60.662 32.8753 62.0818C31.9287 63.3124 31.8341 63.3124 30.9822 62.5551C29.1837 60.946 30.3669 54.8406 32.4967 54.7933C32.6387 54.7933 32.97 55.03 33.3013 55.3613Z" fill="url(#paint0_linear_65_993)"/>
<defs>
<linearGradient id="paint0_linear_65_993" x1="123.167" y1="72.7266" x2="123.167" y2="-7.62939e-06" gradientUnits="userSpaceOnUse">
<stop stop-color="#27D0A5"/>
<stop offset="1" stop-color="#029ECF"/>
</linearGradient>
</defs>
</svg>
