<svg width="30" height="31" viewBox="0 0 30 31" fill="none" xmlns="http://www.w3.org/2000/svg">
<path d="M15 30.6271C23.2843 30.6271 30 23.7976 30 15.3729C30 6.94821 23.2843 0.118652 15 0.118652C6.71573 0.118652 0 6.94821 0 15.3729C0 23.7976 6.71573 30.6271 15 30.6271Z" fill="#F5F5F5"/>
<path d="M10.6999 16.2379C12.0999 17.204 14.0499 16.7972 14.9999 15.3735C15.9499 13.9497 17.8499 13.5429 19.2999 14.509C20.6499 15.4243 21.0499 17.204 20.2999 18.5768C21.9499 15.7294 21.1999 12.0175 18.3999 10.1362C15.5499 8.20396 11.6999 8.96667 9.79986 11.865C9.74986 11.9667 9.69986 12.0684 9.64986 12.1192C8.94986 13.5938 9.39986 15.3226 10.6999 16.2379Z" fill="#ED4C5C"/>
<path d="M19.3002 14.5084C17.9002 13.5423 15.9502 13.9491 15.0002 15.3728C14.0502 16.7966 12.1502 17.2033 10.7002 16.2372C9.35023 15.322 8.95023 13.5423 9.70023 12.1694C8.00023 15.0169 8.80023 18.7288 11.6002 20.6101C14.4502 22.5423 18.3002 21.7796 20.2002 18.8813C20.2502 18.7796 20.3002 18.6779 20.3502 18.6271C21.0502 17.1525 20.6002 15.4237 19.3002 14.5084Z" fill="#428BC1"/>
<path d="M2.9002 10.9488L6.35019 5.71153L6.0002 5.4573L5.6502 5.25391L2.2002 10.4912L2.5502 10.6946L2.9002 10.9488ZM3.8502 11.6098L4.2002 11.8132L7.6002 6.57594L7.3002 6.37255L6.9502 6.11831L3.5002 11.3556L3.8502 11.6098ZM8.2002 6.98272L4.8002 12.22L5.1502 12.4742L5.5002 12.6776L8.9002 7.44035L8.5502 7.23696L8.2002 6.98272ZM23.2502 20.7115L23.6002 20.9658L25.2002 18.5251L24.8502 18.2709L24.5002 18.0675L22.9002 20.5081L23.2502 20.7115ZM27.1002 19.7963L25.5002 22.237L25.8502 22.4912L26.2002 22.6946L27.8002 20.2539L27.4502 20.0505L27.1002 19.7963ZM24.9002 21.8302L26.5002 19.3895L26.1502 19.1353L25.8002 18.9319L24.2002 21.3726L24.5502 21.5759L24.9002 21.8302ZM23.0502 21.0675L22.7002 20.8641L21.1002 23.3048L21.4502 23.5081L21.8002 23.7624L23.4002 21.3217L23.0502 21.0675ZM24.3002 21.9319L24.0002 21.7285L22.4002 24.1692L22.7002 24.3725L23.0502 24.6268L24.6502 22.1861L24.3002 21.9319ZM25.2502 22.5929L23.6502 25.0336L24.0002 25.2878L24.3502 25.4912L25.9502 23.0505L25.6002 22.7963L25.2502 22.5929ZM2.5502 20.0505L2.2002 20.2539L5.6502 25.4912L6.0002 25.2878L6.35019 25.0336L2.9002 19.7963L2.5502 20.0505ZM5.7002 21.9319L5.3502 22.1861L6.9502 24.6268L7.3002 24.3725L7.6002 24.1692L6.0002 21.7285L5.7002 21.9319ZM5.1502 18.2709L4.8002 18.5251L8.2002 23.7624L8.5502 23.5081L8.9002 23.3048L5.5002 18.0675L5.1502 18.2709ZM3.5002 19.3895L5.1002 21.8302L5.4502 21.5759L5.8002 21.3726L4.2002 18.9319L3.8502 19.1353L3.5002 19.3895ZM25.6002 7.94882L25.9502 7.69458L24.3502 5.25391L24.0002 5.4573L23.6502 5.71153L25.2502 8.15221L25.6002 7.94882ZM23.0502 9.67763L23.4002 9.4234L21.8002 6.98272L21.4502 7.23696L21.1002 7.44035L22.7002 9.88103L23.0502 9.67763ZM25.5002 8.50814L27.1002 10.9488L27.4502 10.6946L27.8002 10.4912L26.2002 8.05052L25.8502 8.25391L25.5002 8.50814ZM26.1502 11.6098L26.5002 11.3556L23.0502 6.11831L22.7002 6.37255L22.4002 6.57594L25.8002 11.8132L26.1502 11.6098ZM24.8502 12.4742L25.2002 12.22L23.6002 9.77933L23.2502 10.0336L22.9002 10.237L24.5002 12.6776L24.8502 12.4742Z" fill="#3E4347"/>
</svg>
