<svg width="30" height="31" viewBox="0 0 30 31" fill="none" xmlns="http://www.w3.org/2000/svg">
<g id="Group 108">
<path id="Vector" d="M14.9501 0.373047C8.4501 0.373047 2.9001 4.64423 0.850098 10.5425H29.1501C27.0501 4.64423 21.5001 0.373047 14.9501 0.373047Z" fill="#F9F9F9"/>
<path id="Vector_2" d="M14.9501 30.8814C21.5001 30.8814 27.0501 26.6102 29.1001 20.7119H0.850098C2.9001 26.6611 8.4501 30.8814 14.9501 30.8814Z" fill="#ED4C5C"/>
<path id="Vector_3" d="M0.85 10.5425C0.3 12.1188 0 13.8476 0 15.6272C0 17.4069 0.3 19.1357 0.85 20.712H29.15C29.7 19.1357 30 17.4069 30 15.6272C30 13.8476 29.7 12.1188 29.15 10.5425H0.85Z" fill="#428BC1"/>
</g>
</svg>
