<svg width="30" height="32" viewBox="0 0 30 32" fill="none" xmlns="http://www.w3.org/2000/svg">
<path d="M14.9998 0.745605C8.64981 0.745605 3.2498 4.76255 1.0498 10.4066H28.9498C26.7498 4.76255 21.3498 0.745605 14.9998 0.745605Z" fill="#42ADE2"/>
<path d="M14.9998 31.2543C21.3498 31.2543 26.7498 27.2373 28.9498 21.5933H1.0498C3.2498 27.2373 8.64981 31.2543 14.9998 31.2543Z" fill="#83BF4F"/>
<path d="M30 16.0001C30 14.4238 29.75 12.8476 29.3 11.4238H0.7C0.25 12.8476 0 14.4238 0 16.0001C0 17.5764 0.25 19.1526 0.7 20.5764H29.3C29.75 19.1526 30 17.5764 30 16.0001Z" fill="white"/>
<path d="M29.1502 10.9152C29.1002 10.7627 29.0002 10.5593 28.9502 10.4067H1.0502C1.0002 10.5593 0.900195 10.7627 0.850195 10.9152C0.800195 11.0678 0.750195 11.2711 0.700195 11.4237H29.3002C29.2502 11.2711 29.2002 11.0678 29.1502 10.9152ZM0.850195 21.0847C0.900195 21.2372 1.0002 21.4406 1.0502 21.5932H28.9502C29.0002 21.4406 29.1002 21.2372 29.1502 21.0847C29.2002 20.9322 29.2502 20.7288 29.3002 20.5762H0.700195C0.750195 20.7288 0.800195 20.9322 0.850195 21.0847Z" fill="#C94747"/>
<path d="M9.2 8.5252C8 8.5252 7.05 7.5591 7.05 6.33876C7.05 5.11842 8 4.15232 9.2 4.15232C9.5 4.15232 9.75 4.20317 10 4.30486C9.6 3.99978 9.05 3.79639 8.5 3.79639C7.1 3.79639 6 4.91503 6 6.33876C6 7.76249 7.1 8.88113 8.5 8.88113C9.05 8.88113 9.6 8.67774 10 8.37266C9.75 8.47435 9.5 8.5252 9.2 8.5252ZM11.35 7.4574L11.55 8.01673H12.1L11.65 8.32181L11.8 8.88113L11.35 8.5252L10.9 8.88113L11.1 8.32181L10.65 8.01673H11.2L11.35 7.4574ZM13.5 7.4574L13.65 8.01673H14.25L13.8 8.32181L13.95 8.88113L13.5 8.5252L13.05 8.88113L13.2 8.32181L12.75 8.01673H13.3L13.5 7.4574ZM15.65 7.4574L15.8 8.01673H16.35L15.9 8.32181L16.1 8.88113L15.65 8.5252L15.15 8.88113L15.35 8.32181L14.9 8.01673H15.45L15.65 7.4574ZM17.75 7.4574L17.95 8.01673H18.5L18.05 8.32181L18.2 8.88113L17.75 8.5252L17.3 8.88113L17.45 8.32181L17 8.01673H17.6L17.75 7.4574ZM19.9 7.4574L20.05 8.01673H20.65L20.15 8.32181L20.35 8.88113L19.9 8.5252L19.45 8.88113L19.6 8.32181L19.15 8.01673H19.7L19.9 7.4574ZM13.5 5.6269L13.65 6.18622H14.25L13.8 6.4913L13.95 7.05062L13.5 6.69469L13.05 7.05062L13.2 6.4913L12.75 6.18622H13.3L13.5 5.6269ZM15.65 5.6269L15.8 6.18622H16.35L15.9 6.4913L16.1 7.05062L15.65 6.69469L15.15 7.05062L15.35 6.4913L14.9 6.18622H15.45L15.65 5.6269ZM17.75 5.6269L17.95 6.18622H18.5L18.05 6.4913L18.2 7.05062L17.75 6.69469L17.3 7.05062L17.45 6.4913L17 6.18622H17.6L17.75 5.6269ZM19.9 5.6269L20.05 6.18622H20.65L20.15 6.4913L20.35 7.05062L19.9 6.69469L19.45 7.05062L19.6 6.4913L19.15 6.18622H19.7L19.9 5.6269ZM15.65 3.79639L15.8 4.35571H16.35L15.9 4.66079L16.1 5.22012L15.65 4.86418L15.15 5.22012L15.35 4.66079L14.9 4.35571H15.45L15.65 3.79639ZM17.75 3.79639L17.95 4.35571H18.5L18.05 4.66079L18.2 5.22012L17.75 4.86418L17.3 5.22012L17.45 4.66079L17 4.35571H17.6L17.75 3.79639ZM19.9 3.79639L20.05 4.35571H20.65L20.15 4.66079L20.35 5.22012L19.9 4.86418L19.45 5.22012L19.6 4.66079L19.15 4.35571H19.7L19.9 3.79639Z" fill="white"/>
</svg>
